<svg xmlns="http://www.w3.org/2000/svg" width="41" height="43" viewBox="0 0 41 43">
  <g id="em" transform="translate(-330 -268)">
    <g id="Rectangle_9" data-name="Rectangle 9" transform="translate(330 268)" fill="#ec3434" stroke="#ec3434" stroke-width="1">
      <rect width="41" height="43" rx="20" stroke="none"/>
      <rect x="0.5" y="0.5" width="40" height="42" rx="19.5" fill="none"/>
    </g>
    <g id="emergency-kit-svgrepo-com" transform="translate(337.847 276.847)">
      <path id="Path_5609" data-name="Path 5609" d="M119.713,175.051H118.56V173.9a.858.858,0,1,0-1.716,0v1.153h-1.153a.858.858,0,1,0,0,1.716h1.153v1.153a.858.858,0,0,0,1.716,0v-1.153h1.153a.858.858,0,1,0,0-1.716Z" transform="translate(-105.049 -158.296)" fill="#f1f1f1"/>
      <path id="Path_5610" data-name="Path 5610" d="M21.47,4.423H19.409V3.2a3.2,3.2,0,0,0-3.2-3.2H9.094A3.2,3.2,0,0,0,5.9,3.2V4.423H3.837A3.841,3.841,0,0,0,0,8.26V21.589a3.722,3.722,0,0,0,3.717,3.717H21.589a3.722,3.722,0,0,0,3.717-3.717V8.26A3.841,3.841,0,0,0,21.47,4.423ZM7.613,3.2a1.482,1.482,0,0,1,1.48-1.48h7.119a1.482,1.482,0,0,1,1.48,1.48V4.423H7.613ZM3.837,6.139H21.47A2.123,2.123,0,0,1,23.591,8.26v.587H1.716V8.26A2.123,2.123,0,0,1,3.837,6.139Zm14.1,4.423h1.233V11.8H17.935Zm-11.8,0H7.372V11.8H6.139ZM23.591,21.589a2,2,0,0,1-2,2H3.717a2,2,0,0,1-2-2V10.562H4.423v2.091a.858.858,0,0,0,.858.858H8.23a.858.858,0,0,0,.858-.858V10.562h7.131v2.091a.858.858,0,0,0,.858.858h2.949a.858.858,0,0,0,.858-.858V10.562h2.708V21.589Z" fill="#f1f1f1"/>
    </g>
  </g>
</svg>
