<svg xmlns="http://www.w3.org/2000/svg" width="41" height="43" viewBox="0 0 41 43">
  <g id="fire" transform="translate(-330 -268)">
    <g id="Rectangle_9" data-name="Rectangle 9" transform="translate(330 268)" fill="#ec3434" stroke="#ec3434" stroke-width="1">
      <rect width="41" height="43" rx="20" stroke="none"/>
      <rect x="0.5" y="0.5" width="40" height="42" rx="19.5" fill="none"/>
    </g>
    <g id="SVGRepo_iconCarrier" transform="translate(335.696 273.475)">
      <path id="Path_5611" data-name="Path 5611" d="M21.855,3a.634.634,0,0,0-.185.056L1.129,12.177a.593.593,0,0,0-.352.407L.019,15.9a.592.592,0,0,0,.814.666l2.72-1.2v1.258H8.29V13.25L25.112,5.792a.592.592,0,0,0,.055-1.055L22.207,3.072A.6.6,0,0,0,21.855,3Zm.092,1.3,1.591.888-2.35,1.036Zm-.74.259-.8,2.017-.333.148L18.1,5.941Zm-3.849,1.7,1.962.8L16.192,8.439l.8-2.017Zm-1.129.5-.777,2.017-.333.148L13.1,8.143Zm-3.886,1.74,2.017.777-3.146,1.388.814-2.036Zm-1.055.463-.814,2.036-.315.13-2.017-.759ZM7.365,10.7l2.036.777L6.255,12.862l.759-2Zm-1.129.5L5.5,13.213l-.333.148-2.017-.8Zm8.568.092a1.78,1.78,0,0,0-1.777,1.777V17.8H1.777A1.78,1.78,0,0,0,0,19.579v4.737a1.78,1.78,0,0,0,1.777,1.777H4.2a3.546,3.546,0,0,0,7,0h8.4a3.546,3.546,0,0,0,7,0h1.24a1.78,1.78,0,0,0,1.777-1.777V19.042a2.984,2.984,0,0,0-.018-.333c-.007-.056-.009-.113-.019-.167-.025-.15-.062-.289-.092-.407l-.019-.037V18.08L27.8,13.287v-.018a3.073,3.073,0,0,0-.444-.8s0-.014,0-.018a3.057,3.057,0,0,0-.648-.611s-.014,0-.019,0a2.974,2.974,0,0,0-.37-.241s-.014,0-.018,0a2.91,2.91,0,0,0-1.314-.315ZM2.387,12.9l2,.8-.463.185a.613.613,0,0,0-.148.093L1.443,15.008l.426-1.869ZM16.581,14.25h3.553a.558.558,0,0,1,.592.592V17.8a.558.558,0,0,1-.592.592H16.581a.558.558,0,0,1-.592-.592V14.842A.558.558,0,0,1,16.581,14.25Zm7.106,0H26.87l1.443,4.145H23.687a.558.558,0,0,1-.592-.592V14.842A.558.558,0,0,1,23.687,14.25ZM7.7,23.132A2.369,2.369,0,1,1,5.33,25.5,2.359,2.359,0,0,1,7.7,23.132Zm15.4,0A2.369,2.369,0,1,1,20.726,25.5,2.359,2.359,0,0,1,23.095,23.132Z" transform="translate(0 0)" fill="#f1f1f1"/>
    </g>
  </g>
</svg>
